<?xml version="1.0" encoding="UTF-8"?>
<svg version="1.1" xmlns="http://www.w3.org/2000/svg" width="640" height="640">
<path d="M0 0 C211.2 0 422.4 0 640 0 C640 211.2 640 422.4 640 640 C428.8 640 217.6 640 0 640 C0 428.8 0 217.6 0 0 Z " fill="#F4F4F4" transform="translate(0,0)"/>
<path d="M0 0 C1.41753881 0.47052654 2.83490374 0.94157695 4.25219727 1.4128418 C5.04151138 1.67510056 5.8308255 1.93735931 6.64405823 2.20756531 C10.72036631 3.5786552 14.76679873 5.03321599 18.81445312 6.48632812 C27.16394003 9.45736059 35.58879858 12.20988481 44 15 C44.0093457 16.17280518 44.01869141 17.34561035 44.02832031 18.55395508 C44.06890048 23.00320234 44.13482748 27.45180616 44.20751953 31.90063477 C44.23534233 33.80777575 44.25674403 35.71502377 44.27099609 37.62231445 C44.40486346 54.54761214 46.6447788 70.4299631 52.125 86.5 C52.41866455 87.36326904 52.7123291 88.22653809 53.01489258 89.1159668 C58.67932441 105.07857153 67.2385801 118.99231614 78 132 C78.45487793 132.55268555 78.90975586 133.10537109 79.37841797 133.67480469 C102.30393133 161.09830879 136.92442495 176.89464522 172 181 C213.76008223 183.68404417 250.56188892 169.90371582 281.875 142.875 C285.93056122 139.16474925 289.57067943 135.29531061 293 131 C293.39944824 130.50177734 293.79889648 130.00355469 294.21044922 129.49023438 C305.01571198 115.8524463 312.8545045 101.29768179 318.4375 84.8125 C318.75549561 83.87607666 319.07349121 82.93965332 319.40112305 81.97485352 C324.42392946 66.30915677 325.49307827 51.32023587 325.6875 35 C325.72076632 33.04945764 325.75526411 31.09893589 325.79101562 29.1484375 C325.87483217 24.43240793 325.94213182 19.71641639 326 15 C326.60360352 14.8141333 327.20720703 14.6282666 327.82910156 14.43676758 C344.16285164 9.39358783 344.16285164 9.39358783 360 3 C366.6746988 0 366.6746988 0 370 0 C370.10330889 7.65979172 370.17224414 15.3193976 370.21972656 22.97973633 C370.23956701 25.57355458 370.26664797 28.16732983 370.30175781 30.76098633 C370.66225892 58.12195994 368.25792841 86.67580624 357 112 C356.45279297 113.24160889 356.45279297 113.24160889 355.89453125 114.50830078 C347.8079639 132.64249185 338.11734181 149.04623034 325 164 C324.24976563 164.85980469 323.49953125 165.71960938 322.7265625 166.60546875 C320.51477317 169.10033692 318.26991825 171.55799409 316 174 C315.38898438 174.66515625 314.77796875 175.3303125 314.1484375 176.015625 C300.77171424 190.01849276 283.85251871 201.02296092 266.4609375 209.30859375 C263.12334268 210.86767515 263.12334268 210.86767515 260.60498047 212.48681641 C258.04589762 213.97333894 255.65843022 214.95767556 252.859375 215.90234375 C251.87952637 216.23347168 250.89967773 216.56459961 249.89013672 216.90576172 C248.8538916 217.24623535 247.81764648 217.58670898 246.75 217.9375 C245.14342529 218.46754639 245.14342529 218.46754639 243.50439453 219.00830078 C234.78115103 221.83770786 226.03668817 224.3818629 217 226 C216.03167236 226.17515137 215.06334473 226.35030273 214.06567383 226.53076172 C204.01067856 228.1656373 194.10525668 228.3970166 183.9375 228.375 C182.64815552 228.37518127 182.64815552 228.37518127 181.33276367 228.37536621 C168.93800464 228.35056977 157.09428572 227.75802755 145.05517578 224.546875 C143.08955789 224.02383104 141.10525507 223.57258523 139.12109375 223.125 C107.88255318 215.70460436 78.68764761 198.49401193 56 176 C55.20722656 175.25621094 54.41445312 174.51242187 53.59765625 173.74609375 C34.04864592 155.09035981 18.62713183 129.46729315 10 104 C9.65710938 103.06929688 9.31421875 102.13859375 8.9609375 101.1796875 C6.8668244 95.31297371 5.2720993 89.37618556 3.875 83.3125 C3.71636475 82.64323486 3.55772949 81.97396973 3.39428711 81.28442383 C-0.53594217 63.44659394 -0.24470859 45.60271404 -0.125 27.4375 C-0.11379142 24.76888359 -0.10582569 22.10026949 -0.09765625 19.43164062 C-0.07582893 12.95434563 -0.0425322 6.47719043 0 0 Z " fill="#353535" transform="translate(135,305)"/>
<path d="M0 0 C0.67192383 0.1139209 1.34384766 0.2278418 2.03613281 0.34521484 C10.93018002 1.84145144 19.83826799 3.23917561 28.75 4.625 C30.23698816 4.85671313 31.72396738 5.08848361 33.2109375 5.3203125 C36.80718919 5.88086765 40.40356014 6.44065324 44 7 C44.02578125 8.11375 44.0515625 9.2275 44.078125 10.375 C44.87959504 34.81848685 52.19869171 54.96488169 70.1875 72.1875 C87.47187367 86.90339157 107.8053891 91.59998893 130 90 C149.14023223 87.69573903 166.34690375 77.21754984 178.83203125 62.83203125 C191.82543406 45.85866722 195.13840815 27.81424518 196 7 C197.05058594 6.87882812 198.10117187 6.75765625 199.18359375 6.6328125 C208.9463538 5.49250485 208.9463538 5.49250485 218.578125 3.57421875 C221.97480868 2.76887601 225.39203157 2.07036323 228.8125 1.375 C230.07707031 1.11460937 231.34164062 0.85421875 232.64453125 0.5859375 C236 0 236 0 240 0 C241.04601884 38.37682213 233.50207184 71.65431813 206.70703125 100.609375 C185.17938535 123.20675512 154.60301701 137.08871829 123.33203125 138.12109375 C110.43798716 138.40010419 98.5855353 136.60534047 86.1875 133.125 C85.31585205 132.88056152 84.4442041 132.63612305 83.54614258 132.38427734 C74.9804102 129.87544451 67.18638844 126.37608632 59.5625 121.75 C58.92070801 121.36303955 58.27891602 120.9760791 57.61767578 120.57739258 C52.04087018 117.14932613 46.9881247 113.23537134 42 109 C41.15308594 108.33871094 40.30617187 107.67742187 39.43359375 106.99609375 C35.82391344 104.03534473 32.98538907 100.57379564 30 97 C29.35804688 96.24589844 28.71609375 95.49179687 28.0546875 94.71484375 C18.76735902 83.51541823 12.36689738 71.41894832 7 58 C6.73348633 57.3407251 6.46697266 56.6814502 6.19238281 56.00219727 C4.45924556 51.57562762 3.27693341 47.24561578 2.375 42.5625 C2.01535156 40.73912109 2.01535156 40.73912109 1.6484375 38.87890625 C0.16565097 30.00898442 -0.12720861 21.43199706 -0.0625 12.4375 C-0.05798828 11.23802734 -0.05347656 10.03855469 -0.04882812 8.80273438 C-0.03713769 5.86843641 -0.02075138 2.93424551 0 0 Z " fill="#353535" transform="translate(200,326)"/>
<path d="M0 0 C14.52 0 29.04 0 44 0 C44 67.98 44 135.96 44 206 C32.74890916 206 32.74890916 206 26.85546875 204.94140625 C24.97504883 204.60979492 24.97504883 204.60979492 23.05664062 204.27148438 C21.77982422 204.03751953 20.50300781 203.80355469 19.1875 203.5625 C17.24327148 203.21735352 17.24327148 203.21735352 15.25976562 202.86523438 C10.16233217 201.95638965 5.07743763 201.01548753 0 200 C0 134 0 68 0 0 Z " fill="#D25A24" transform="translate(200,106)"/>
<path d="M0 0 C14.52 0 29.04 0 44 0 C44 65.67 44 131.34 44 199 C37.24142098 200.93102258 30.58416503 202.33351782 23.6875 203.625 C22.51509766 203.85445312 21.34269531 204.08390625 20.13476562 204.3203125 C18.98041016 204.536875 17.82605469 204.7534375 16.63671875 204.9765625 C15.08537231 205.27167725 15.08537231 205.27167725 13.50268555 205.57275391 C9.0326682 206.11799196 4.50314774 206 0 206 C0 138.02 0 70.04 0 0 Z " fill="#D25A24" transform="translate(396,106)"/>
<path d="M0 0 C14.52 0 29.04 0 44 0 C44 64.02 44 128.04 44 194 C32.76923077 191.75384615 32.76923077 191.75384615 27.6875 190.125 C26.594375 189.77824219 25.50125 189.43148437 24.375 189.07421875 C22.704375 188.54248047 22.704375 188.54248047 21 188 C17.72361297 187.00591439 14.44615878 186.01546571 11.16796875 185.02734375 C7.40364433 183.80660723 3.70534878 182.38950579 0 181 C0 121.27 0 61.54 0 0 Z " fill="#D25A24" transform="translate(135,106)"/>
<path d="M0 0 C14.52 0 29.04 0 44 0 C44 59.4 44 118.8 44 180 C35.34922836 183.60448819 26.91662434 186.86765843 18.0625 189.8125 C16.87076172 190.21919922 15.67902344 190.62589844 14.45117188 191.04492188 C13.30326172 191.42841797 12.15535156 191.81191406 10.97265625 192.20703125 C9.94406494 192.5522583 8.91547363 192.89748535 7.85571289 193.25317383 C5 194 5 194 0 194 C0 129.98 0 65.96 0 0 Z " fill="#D25A25" transform="translate(461,106)"/>
<path d="M0 0 C0.3799424 42.16483859 0.3799424 42.16483859 -0.875 54.875 C-0.95347168 55.67897217 -1.03194336 56.48294434 -1.11279297 57.3112793 C-1.52755527 60.86701026 -1.96907395 63.99544648 -4 67 C-7.17546695 68.42348518 -9.69978999 67.8250525 -13 67 C-13.33 67.99 -13.66 68.98 -14 70 C-15.29355827 71.37195574 -16.62298702 72.71182656 -18 74 C-16.35 74 -14.7 74 -13 74 C-12.67 72.02 -12.34 70.04 -12 68 C-11.34 68 -10.68 68 -10 68 C-10.3125 70.875 -10.3125 70.875 -11 74 C-14 76 -14 76 -16.5 75.8125 C-19.13662075 74.95559826 -20.25689748 74.11007147 -22 72 C-22.495 72.99 -22.495 72.99 -23 74 C-21.68 75.65 -20.36 77.3 -19 79 C-19.66 80.32 -20.32 81.64 -21 83 C-24.35641407 82.40064035 -26.42187962 81.22251757 -29 79 C-30.34147402 76.31705195 -29.68764995 75.32876632 -28.8203125 72.4921875 C-28.55089844 71.58726562 -28.28148437 70.68234375 -28.00390625 69.75 C-27.71386719 68.80125 -27.42382812 67.8525 -27.125 66.875 C-26.55920475 65.02001833 -25.99920823 63.16325706 -25.4453125 61.3046875 C-25.19281738 60.47952637 -24.94032227 59.65436523 -24.68017578 58.80419922 C-23.01514672 51.9396896 -22.81744387 45.05840164 -22.68359375 38.03125 C-22.66281265 37.11033569 -22.64203156 36.18942139 -22.62062073 35.24060059 C-22.55574882 32.32713575 -22.49653318 29.41358839 -22.4375 26.5 C-22.39425533 24.51301263 -22.35063924 22.52603331 -22.30664062 20.5390625 C-22.20013228 15.6927908 -22.09869316 10.8464369 -22 6 C-18.8980736 4.9929564 -15.79311902 3.99559195 -12.6875 3 C-11.80642578 2.71382813 -10.92535156 2.42765625 -10.01757812 2.1328125 C-9.17001953 1.86210937 -8.32246094 1.59140625 -7.44921875 1.3125 C-6.27879028 0.93544922 -6.27879028 0.93544922 -5.0847168 0.55078125 C-3 0 -3 0 0 0 Z " fill="#464646" transform="translate(483,314)"/>
<path d="M0 0 C1.42803731 0.47165866 2.85569868 0.94445564 4.28320312 1.41772461 C5.07827271 1.68088974 5.87334229 1.94405487 6.69250488 2.2151947 C9.67317477 3.22895439 12.58835565 4.36557404 15.5 5.5625 C16.5209375 5.97628906 17.541875 6.39007813 18.59375 6.81640625 C21 8 21 8 22 10 C22.11931048 11.75590877 22.17719868 13.51614607 22.20532227 15.27587891 C22.22526749 16.3768692 22.24521271 17.4778595 22.26576233 18.61221313 C22.28247482 19.80494843 22.29918732 20.99768372 22.31640625 22.2265625 C22.33718735 23.44451508 22.35796844 24.66246765 22.37937927 25.91732788 C22.44492584 29.8198262 22.50378355 33.7223935 22.5625 37.625 C22.60568035 40.26563222 22.64929448 42.90625739 22.69335938 45.546875 C22.80061244 52.03117643 22.90236929 58.51554694 23 65 C21.02 65 19.04 65 17 65 C16.34 67.97 15.68 70.94 15 74 C13.8553125 73.9071875 13.8553125 73.9071875 12.6875 73.8125 C9.99550511 73.75597109 9.99550511 73.75597109 8.25 75.3125 C6.79696921 77.09146679 6.79696921 77.09146679 6 80 C5.01 80 4.02 80 3 80 C0.05239224 62.29536645 -0.36818231 44.9795943 -0.1875 27.0625 C-0.17240518 24.42123171 -0.15872538 21.77995494 -0.14648438 19.13867188 C-0.11390714 12.75892501 -0.06409882 6.37950414 0 0 Z " fill="#252525" transform="translate(135,305)"/>
<path d="M0 0 C0.33 0 0.66 0 1 0 C1 59.07 1 118.14 1 179 C0.67 179 0.34 179 0 179 C-0.33 162.17 -0.66 145.34 -1 128 C-2.32 127.67 -3.64 127.34 -5 127 C-3.02 126.01 -3.02 126.01 -1 125 C-1 124.01 -1 123.02 -1 122 C-1.66 122.99 -2.32 123.98 -3 125 C-6.16259871 125.40373601 -8.14012639 125.54458662 -10.875 123.8125 C-12.45090926 121.27353509 -12.57287294 119.93597381 -12 117 C-9.5 114.6875 -9.5 114.6875 -7 113 C-4.53199953 114.15173355 -2.95216435 115.04783565 -1 117 C-1.26676204 115.01508358 -1.26676204 115.01508358 -2 113 C-2.99 112.67 -3.98 112.34 -5 112 C-5.495 109.525 -5.495 109.525 -6 107 C-4.35 107.33 -2.7 107.66 -1 108 C-0.67 72.36 -0.34 36.72 0 0 Z " fill="#EFE7E4" transform="translate(134,107)"/>
<path d="M0 0 C2.4375 1.5625 2.4375 1.5625 4 4 C3.91750186 8.61989605 3.14344775 11.58320896 0 15 C-7.875 14.125 -7.875 14.125 -9 13 C-9.07244053 10.98035801 -9.08377188 8.95832876 -9.0625 6.9375 C-9.05347656 5.83277344 -9.04445312 4.72804688 -9.03515625 3.58984375 C-9.02355469 2.73519531 -9.01195312 1.88054687 -9 1 C-5.68377419 -0.1054086 -3.47482175 -0.35457365 0 0 Z " fill="#DA7729" transform="translate(210,292)"/>
<path d="M0 0 C2.375 1.625 2.375 1.625 4 4 C4.61195145 7.6717087 4.48706506 9.28813568 2.375 12.375 C0 14 0 14 -3 14.5625 C-6 14 -6 14 -8.375 11.8125 C-10.14232156 8.75367423 -10.70698088 7.44653179 -10 4 C-7.16979976 -0.02759265 -4.82432618 -0.80405436 0 0 Z " fill="#EEEEEE" transform="translate(63,465)"/>
<path d="M0 0 C2.375 1.625 2.375 1.625 4 4 C4.61195145 7.6717087 4.48706506 9.28813568 2.375 12.375 C0 14 0 14 -3 14.5625 C-6 14 -6 14 -8.375 11.8125 C-10.14232156 8.75367423 -10.70698088 7.44653179 -10 4 C-7.16979976 -0.02759265 -4.82432618 -0.80405436 0 0 Z " fill="#EEEEEE" transform="translate(383,145)"/>
<path d="M0 0 C2.375 1.625 2.375 1.625 4 4 C4.61195145 7.6717087 4.48706506 9.28813568 2.375 12.375 C0 14 0 14 -3 14.5625 C-6 14 -6 14 -8.375 11.8125 C-10.14232156 8.75367423 -10.70698088 7.44653179 -10 4 C-7.16979976 -0.02759265 -4.82432618 -0.80405436 0 0 Z " fill="#EEEEEE" transform="translate(63,145)"/>
<path d="M0 0 C2.4375 1.5625 2.4375 1.5625 4 4 C4 7.82389746 3.85254277 10.05611336 1.25 12.9375 C-1.49491218 14.23370853 -3.00074212 14.52487013 -6 14 C-8.3125 12.375 -8.3125 12.375 -10 10 C-10.61195145 6.3282913 -10.48706506 4.71186432 -8.375 1.625 C-5.28813568 -0.48706506 -3.6717087 -0.61195145 0 0 Z " fill="#EEEEEE" transform="translate(530,612)"/>
<path d="M0 0 C2.4375 1.5625 2.4375 1.5625 4 4 C4 7.82389746 3.85254277 10.05611336 1.25 12.9375 C-1.49491218 14.23370853 -3.00074212 14.52487013 -6 14 C-8.3125 12.375 -8.3125 12.375 -10 10 C-10.61195145 6.3282913 -10.48706506 4.71186432 -8.375 1.625 C-5.28813568 -0.48706506 -3.6717087 -0.61195145 0 0 Z " fill="#EEEEEE" transform="translate(210,612)"/>
<path d="M0 0 C2.4375 1.5625 2.4375 1.5625 4 4 C4 7.82389746 3.85254277 10.05611336 1.25 12.9375 C-1.49491218 14.23370853 -3.00074212 14.52487013 -6 14 C-8.3125 12.375 -8.3125 12.375 -10 10 C-10.61195145 6.3282913 -10.48706506 4.71186432 -8.375 1.625 C-5.28813568 -0.48706506 -3.6717087 -0.61195145 0 0 Z " fill="#EEEEEE" transform="translate(530,292)"/>
<path d="M0 0 C2.30185003 1.6441786 2.91416469 2.74249406 3.8125 5.4375 C4.03028707 8.41392331 3.84483577 9.65202721 2 12 C-2.33117046 13.73246818 -5.7141729 12.42860903 -10 11 C-10 7.7 -10 4.4 -10 1 C-6.24928186 -0.82177738 -3.99362668 -1.36624071 0 0 Z " fill="#CA4520" transform="translate(211,142)"/>
<path d="M0 0 C3.83776322 1.56353316 6.34999338 3.83471431 9 7 C9.625 9.5625 9.625 9.5625 9 12 C6.5 14.3125 6.5 14.3125 4 16 C2.51719804 15.21516341 1.0388502 14.42190666 -0.4375 13.625 C-1.67306641 12.96371094 -1.67306641 12.96371094 -2.93359375 12.2890625 C-5 11 -5 11 -6 9 C-3.65625 2.4375 -3.65625 2.4375 0 0 Z " fill="#F3F3F3" transform="translate(277,390)"/>
<path d="M0 0 C0.94875 0.04125 1.8975 0.0825 2.875 0.125 C4.70441851 3.89144988 5.10662684 6.09422125 3.875 10.125 C2.875 11.125 2.875 11.125 -0.6875 11.1875 C-1.821875 11.166875 -2.95625 11.14625 -4.125 11.125 C-3.135 12.61 -3.135 12.61 -2.125 14.125 C1.44269552 14.86106499 1.44269552 14.86106499 4.875 15.125 C4.875 15.455 4.875 15.785 4.875 16.125 C-1.99015862 16.38904456 -8.38346717 15.38341946 -15.125 14.125 C-15.125 13.795 -15.125 13.465 -15.125 13.125 C-13.990625 13.00125 -12.85625 12.8775 -11.6875 12.75 C-10.511875 12.54375 -9.33625 12.3375 -8.125 12.125 C-7.795 11.465 -7.465 10.805 -7.125 10.125 C-8.445 9.795 -9.765 9.465 -11.125 9.125 C-9.475 8.795 -7.825 8.465 -6.125 8.125 C-6.00125 7.17625 -5.8775 6.2275 -5.75 5.25 C-4.9116727 1.05836349 -4.32891429 0.17315657 0 0 Z " fill="#525252" transform="translate(302.125,516.875)"/>
<path d="M0 0 C1.32 0 2.64 0 4 0 C4 0.66 4 1.32 4 2 C4.66 2 5.32 2 6 2 C5.9375 4.3125 5.9375 4.3125 5 7 C3.845 7.474375 2.69 7.94875 1.5 8.4375 C0.345 8.953125 -0.81 9.46875 -2 10 C-3.05749557 13.08369887 -3.05749557 13.08369887 -3 16 C-4.65 16 -6.3 16 -8 16 C-7.67 14.68 -7.34 13.36 -7 12 C-8.98 12.99 -8.98 12.99 -11 14 C-11.75 12.25 -11.75 12.25 -12 10 C-10.375 7.6875 -10.375 7.6875 -8 6 C-5.25 6.25 -5.25 6.25 -3 7 C-2.690625 6.030625 -2.38125 5.06125 -2.0625 4.0625 C-1 1 -1 1 0 0 Z " fill="#323232" transform="translate(153,372)"/>
<path d="M0 0 C3.83776322 1.56353316 6.34999338 3.83471431 9 7 C9.5 9.625 9.5 9.625 9 12 C7.75 13.8125 7.75 13.8125 6 15 C4.68 15 3.36 15 2 15 C2 14.34 2 13.68 2 13 C3.32 12.67 4.64 12.34 6 12 C5.67 11.67 5.34 11.34 5 11 C4.67 11.33 4.34 11.66 4 12 C-1.21848739 12.45378151 -1.21848739 12.45378151 -3.9375 10.875 C-5 9 -5 9 -4.9375 6 C-3.88710616 2.63873972 -2.98886835 1.73547195 0 0 Z " fill="#E6E6E6" transform="translate(597,390)"/>
<path d="M0 0 C3.83776322 1.56353316 6.34999338 3.83471431 9 7 C9.5 9.625 9.5 9.625 9 12 C7.75 13.8125 7.75 13.8125 6 15 C4.68 15 3.36 15 2 15 C2 14.34 2 13.68 2 13 C3.32 12.67 4.64 12.34 6 12 C5.67 11.67 5.34 11.34 5 11 C4.67 11.33 4.34 11.66 4 12 C-1.21848739 12.45378151 -1.21848739 12.45378151 -3.9375 10.875 C-5 9 -5 9 -4.9375 6 C-3.88710616 2.63873972 -2.98886835 1.73547195 0 0 Z " fill="#E6E6E6" transform="translate(597,70)"/>
<path d="M0 0 C3.83776322 1.56353316 6.34999338 3.83471431 9 7 C9.5 9.625 9.5 9.625 9 12 C7.75 13.8125 7.75 13.8125 6 15 C4.68 15 3.36 15 2 15 C2 14.34 2 13.68 2 13 C3.32 12.67 4.64 12.34 6 12 C5.67 11.67 5.34 11.34 5 11 C4.67 11.33 4.34 11.66 4 12 C-1.21848739 12.45378151 -1.21848739 12.45378151 -3.9375 10.875 C-5 9 -5 9 -4.9375 6 C-3.88710616 2.63873972 -2.98886835 1.73547195 0 0 Z " fill="#E6E6E6" transform="translate(277,70)"/>
<path d="M0 0 C3.83776322 1.56353316 6.34999338 3.83471431 9 7 C9.58142624 10.05248778 9.47086097 11.29370854 7.75 13.875 C6 15 6 15 3.8125 14.6875 C3.214375 14.460625 2.61625 14.23375 2 14 C3.32 13.34 4.64 12.68 6 12 C6 11.01 6 10.02 6 9 C5.01 10.485 5.01 10.485 4 12 C0.83740129 12.40373601 -1.14012639 12.54458662 -3.875 10.8125 C-5.45090926 8.27353509 -5.57287294 6.93597381 -5 4 C-2.5 1.6875 -2.5 1.6875 0 0 Z " fill="#E7E7E7" transform="translate(447,540)"/>
<path d="M0 0 C3.83776322 1.56353316 6.34999338 3.83471431 9 7 C9.58142624 10.05248778 9.47086097 11.29370854 7.75 13.875 C6 15 6 15 3.8125 14.6875 C3.214375 14.460625 2.61625 14.23375 2 14 C3.32 13.34 4.64 12.68 6 12 C6 11.01 6 10.02 6 9 C5.01 10.485 5.01 10.485 4 12 C0.83740129 12.40373601 -1.14012639 12.54458662 -3.875 10.8125 C-5.45090926 8.27353509 -5.57287294 6.93597381 -5 4 C-2.5 1.6875 -2.5 1.6875 0 0 Z " fill="#E7E7E7" transform="translate(127,540)"/>
<path d="M0 0 C3.83776322 1.56353316 6.34999338 3.83471431 9 7 C9.58142624 10.05248778 9.47086097 11.29370854 7.75 13.875 C6 15 6 15 3.8125 14.6875 C3.214375 14.460625 2.61625 14.23375 2 14 C3.32 13.34 4.64 12.68 6 12 C6 11.01 6 10.02 6 9 C5.01 10.485 5.01 10.485 4 12 C0.83740129 12.40373601 -1.14012639 12.54458662 -3.875 10.8125 C-5.45090926 8.27353509 -5.57287294 6.93597381 -5 4 C-2.5 1.6875 -2.5 1.6875 0 0 Z " fill="#E7E7E7" transform="translate(447,220)"/>
<path d="M0 0 C2.25 1 2.25 1 4.25 4 C3.875 7.1875 3.875 7.1875 3.25 10 C1.93 10.33 0.61 10.66 -0.75 11 C0.24 12.32 1.23 13.64 2.25 15 C-0.75 15 -0.75 15 -2.79296875 13.3203125 C-3.50066406 12.59585937 -4.20835937 11.87140625 -4.9375 11.125 C-5.65292969 10.40570313 -6.36835937 9.68640625 -7.10546875 8.9453125 C-8.75 7 -8.75 7 -8.75 5 C-3.75 0 -3.75 0 0 0 Z " fill="#E7E7E7" transform="translate(582.75,407)"/>
<path d="M0 0 C5.42857143 -0.36190476 5.42857143 -0.36190476 7.875 1.1875 C9.40659584 3.65507108 9.42822025 5.14519831 9 8 C8 9 7 10 6 11 C6.22757731 13.16299211 6.22757731 13.16299211 7 15 C3.84164893 13.60249952 1.67727175 11.94801766 -0.75 9.5 C-1.67039062 8.58734375 -1.67039062 8.58734375 -2.609375 7.65625 C-4 6 -4 6 -4 4 C-3.34 4 -2.68 4 -2 4 C-1.34 2.68 -0.68 1.36 0 0 Z " fill="#C6471C" transform="translate(428,238)"/>
<path d="M0 0 C2.25 1 2.25 1 4.25 4 C3.875 7.1875 3.875 7.1875 3.25 10 C1.93 10.33 0.61 10.66 -0.75 11 C0.24 12.32 1.23 13.64 2.25 15 C-0.75 15 -0.75 15 -2.79296875 13.3203125 C-3.50066406 12.59585938 -4.20835937 11.87140625 -4.9375 11.125 C-5.65292969 10.40570313 -6.36835937 9.68640625 -7.10546875 8.9453125 C-8.75 7 -8.75 7 -8.75 5 C-3.75 0 -3.75 0 0 0 Z " fill="#E7E7E7" transform="translate(582.75,87)"/>
<path d="M0 0 C2.25 1 2.25 1 4.25 4 C3.875 7.1875 3.875 7.1875 3.25 10 C1.93 10.33 0.61 10.66 -0.75 11 C0.24 12.32 1.23 13.64 2.25 15 C-0.75 15 -0.75 15 -2.79296875 13.3203125 C-3.50066406 12.59585938 -4.20835937 11.87140625 -4.9375 11.125 C-5.65292969 10.40570313 -6.36835938 9.68640625 -7.10546875 8.9453125 C-8.75 7 -8.75 7 -8.75 5 C-3.75 0 -3.75 0 0 0 Z " fill="#E7E7E7" transform="translate(262.75,87)"/>
<path d="M0 0 C3.125 0.25 3.125 0.25 5.0625 1.375 C6.125 3.25 6.125 3.25 6 6.25 C5.10441411 9.32058019 4.39847492 10.17421855 2.125 12.25 C2.125 13.24 2.125 14.23 2.125 15.25 C-0.845 12.28 -3.815 9.31 -6.875 6.25 C-6.215 5.92 -5.555 5.59 -4.875 5.25 C-4.5028958 3.92696283 -4.16869827 2.59262065 -3.875 1.25 C-2.875 0.25 -2.875 0.25 0 0 Z " fill="#E6E6E6" transform="translate(430.875,557.75)"/>
<path d="M0 0 C3.125 0.25 3.125 0.25 5.0625 1.375 C6.125 3.25 6.125 3.25 6 6.25 C5.10441411 9.32058019 4.39847492 10.17421855 2.125 12.25 C2.125 13.24 2.125 14.23 2.125 15.25 C-0.845 12.28 -3.815 9.31 -6.875 6.25 C-6.215 5.92 -5.555 5.59 -4.875 5.25 C-4.5028958 3.92696283 -4.16869827 2.59262065 -3.875 1.25 C-2.875 0.25 -2.875 0.25 0 0 Z " fill="#E6E6E6" transform="translate(110.875,557.75)"/>
<path d="M0 0 C3.125 0.25 3.125 0.25 5.0625 1.375 C6.125 3.25 6.125 3.25 6 6.25 C5.10441411 9.32058019 4.39847492 10.17421855 2.125 12.25 C2.125 13.24 2.125 14.23 2.125 15.25 C-0.845 12.28 -3.815 9.31 -6.875 6.25 C-6.215 5.92 -5.555 5.59 -4.875 5.25 C-4.5028958 3.92696283 -4.16869827 2.59262065 -3.875 1.25 C-2.875 0.25 -2.875 0.25 0 0 Z " fill="#E6E6E6" transform="translate(110.875,237.75)"/>
<path d="M0 0 C3.36179774 1.44077046 5.59156268 3.24750021 8 6 C8 6.66 8 7.32 8 8 C8.66 8 9.32 8 10 8 C9.3125 9.9375 9.3125 9.9375 8 12 C4.75905362 13.10874482 2.18820728 13.31925818 -1 12 C-3.31282587 8.53076119 -3.42478586 7.07794425 -3 3 C-1.5 1.125 -1.5 1.125 0 0 Z " fill="#454545" transform="translate(204,462)"/>
<path d="M0 0 C3.16115776 1.36983503 3.9927092 1.9890638 6 5 C5.44444444 10.55555556 5.44444444 10.55555556 4 12 C-1.27565392 12.45875252 -1.27565392 12.45875252 -3.875 10.8125 C-5.45090926 8.27353509 -5.57287294 6.93597381 -5 4 C-2.5 1.6875 -2.5 1.6875 0 0 Z " fill="#E7E7E7" transform="translate(127,220)"/>
<path d="M0 0 C0.94875 0.04125 1.8975 0.0825 2.875 0.125 C3.205 1.115 3.535 2.105 3.875 3.125 C4.535 3.125 5.195 3.125 5.875 3.125 C5.125 8.875 5.125 8.875 2.875 11.125 C0.06515752 11.48523622 -1.50741919 11.50832602 -3.9375 10 C-5.65349028 7.29054166 -5.458728 5.26204316 -5.125 2.125 C-3.125 0.125 -3.125 0.125 0 0 Z " fill="#E7E7E7" transform="translate(622.125,366.875)"/>
<path d="M0 0 C0.94875 0.04125 1.8975 0.0825 2.875 0.125 C3.205 1.115 3.535 2.105 3.875 3.125 C4.535 3.125 5.195 3.125 5.875 3.125 C5.125 8.875 5.125 8.875 2.875 11.125 C0.06515752 11.48523622 -1.50741919 11.50832602 -3.9375 10 C-5.65349028 7.29054166 -5.458728 5.26204316 -5.125 2.125 C-3.125 0.125 -3.125 0.125 0 0 Z " fill="#E7E7E7" transform="translate(302.125,366.875)"/>
<path d="M0 0 C0.94875 0.04125 1.8975 0.0825 2.875 0.125 C3.205 1.115 3.535 2.105 3.875 3.125 C4.535 3.125 5.195 3.125 5.875 3.125 C5.125 8.875 5.125 8.875 2.875 11.125 C0.06515752 11.48523622 -1.50741919 11.50832602 -3.9375 10 C-5.65349028 7.29054166 -5.458728 5.26204316 -5.125 2.125 C-3.125 0.125 -3.125 0.125 0 0 Z " fill="#E7E7E7" transform="translate(622.125,46.875)"/>
<path d="M0 0 C0.94875 0.04125 1.8975 0.0825 2.875 0.125 C3.205 1.115 3.535 2.105 3.875 3.125 C4.535 3.125 5.195 3.125 5.875 3.125 C5.125 8.875 5.125 8.875 2.875 11.125 C0.06515752 11.48523622 -1.50741919 11.50832602 -3.9375 10 C-5.65349028 7.29054166 -5.458728 5.26204316 -5.125 2.125 C-3.125 0.125 -3.125 0.125 0 0 Z " fill="#E7E7E7" transform="translate(302.125,46.875)"/>
<path d="M0 0 C0.99 0.66 1.98 1.32 3 2 C3 2.66 3 3.32 3 4 C3.66 4.33 4.32 4.66 5 5 C-1.435 7.97 -1.435 7.97 -8 11 C-10 9 -10 9 -10.375 6.625 C-10 4 -10 4 -8.375 1.6875 C-5.33857062 -0.46996298 -3.65422636 -0.46649698 0 0 Z " fill="#EFEFEF" transform="translate(383,465)"/>
<path d="M0 0 C2.33944736 0.28730055 4.6739143 0.61936779 7 1 C5.70700306 3.88437779 4.34058637 5.87219421 2 8 C3.32 8 4.64 8 6 8 C6.33 6.68 6.66 5.36 7 4 C7.66 4 8.32 4 9 4 C8.6875 6.375 8.6875 6.375 8 9 C4.78697711 11.14201526 3.73290719 11.65325876 0 11 C-1.9375 8.8125 -1.9375 8.8125 -3 6 C-2.33719617 3.56971928 -1.7989028 1.7989028 0 0 Z " fill="#E7E7E7" transform="translate(469,517)"/>
<path d="M0 0 C2.33944736 0.28730055 4.6739143 0.61936779 7 1 C5.70700306 3.88437779 4.34058637 5.87219421 2 8 C3.32 8 4.64 8 6 8 C6.33 6.68 6.66 5.36 7 4 C7.66 4 8.32 4 9 4 C8.6875 6.375 8.6875 6.375 8 9 C4.78697711 11.14201526 3.73290719 11.65325876 0 11 C-1.9375 8.8125 -1.9375 8.8125 -3 6 C-2.33719617 3.56971928 -1.7989028 1.7989028 0 0 Z " fill="#E7E7E7" transform="translate(149,517)"/>
<path d="M0 0 C0.8125 1.625 0.8125 1.625 1 4 C-0.46818136 6.24609835 -2.15852858 8.02378677 -4 10 C-2.04105639 9.88693303 -2.04105639 9.88693303 0 9 C1.29660434 6.50965614 1.29660434 6.50965614 2 4 C2.33 4 2.66 4 3 4 C3.125 6.375 3.125 6.375 3 9 C1 11 1 11 -1.9375 11.3125 C-5 11 -5 11 -6.875 9.8125 C-8.40659584 7.34492892 -8.42822025 5.85480169 -8 3 C-5.82311273 -0.32261741 -3.79605352 -0.30778812 0 0 Z " fill="#E7E7E7" transform="translate(616,375)"/>
<path d="M0 0 C0.8125 1.625 0.8125 1.625 1 4 C-0.46818136 6.24609835 -2.15852858 8.02378677 -4 10 C-2.04105639 9.88693303 -2.04105639 9.88693303 0 9 C1.29660434 6.50965614 1.29660434 6.50965614 2 4 C2.33 4 2.66 4 3 4 C3.125 6.375 3.125 6.375 3 9 C1 11 1 11 -1.9375 11.3125 C-5 11 -5 11 -6.875 9.8125 C-8.40659584 7.34492892 -8.42822025 5.85480169 -8 3 C-5.82311273 -0.32261741 -3.79605352 -0.30778812 0 0 Z " fill="#E7E7E7" transform="translate(296,375)"/>
<path d="M0 0 C0.8125 1.625 0.8125 1.625 1 4 C-0.46818136 6.24609835 -2.15852858 8.02378677 -4 10 C-2.04105639 9.88693303 -2.04105639 9.88693303 0 9 C1.29660434 6.50965614 1.29660434 6.50965614 2 4 C2.33 4 2.66 4 3 4 C3.125 6.375 3.125 6.375 3 9 C1 11 1 11 -1.9375 11.3125 C-5 11 -5 11 -6.875 9.8125 C-8.40659584 7.34492892 -8.42822025 5.85480169 -8 3 C-5.82311273 -0.32261741 -3.79605352 -0.30778812 0 0 Z " fill="#E7E7E7" transform="translate(616,55)"/>
<path d="M0 0 C0.8125 1.625 0.8125 1.625 1 4 C-0.46818136 6.24609835 -2.15852858 8.02378677 -4 10 C-2.04105639 9.88693303 -2.04105639 9.88693303 0 9 C1.29660434 6.50965614 1.29660434 6.50965614 2 4 C2.33 4 2.66 4 3 4 C3.125 6.375 3.125 6.375 3 9 C1 11 1 11 -1.9375 11.3125 C-5 11 -5 11 -6.875 9.8125 C-8.40659584 7.34492892 -8.42822025 5.85480169 -8 3 C-5.82311273 -0.32261741 -3.79605352 -0.30778812 0 0 Z " fill="#E7E7E7" transform="translate(296,55)"/>
<path d="M0 0 C-0.57352893 3.87132028 -2.48704352 6.08172796 -5 9 C-3.04105639 8.88693303 -3.04105639 8.88693303 -1 8 C0.29660434 5.50965614 0.29660434 5.50965614 1 3 C1.33 3 1.66 3 2 3 C2.125 5.375 2.125 5.375 2 8 C0 10 0 10 -2.9375 10.3125 C-6 10 -6 10 -7.875 8.8125 C-9.42229478 6.31963619 -9.50405716 4.88032665 -9 2 C-6.04897468 -1.27891703 -4.09533092 -1.25135112 0 0 Z " fill="#E6E6E6" transform="translate(467,526)"/>
<path d="M0 0 C-0.57352893 3.87132028 -2.48704352 6.08172796 -5 9 C-3.04105639 8.88693303 -3.04105639 8.88693303 -1 8 C0.29660434 5.50965614 0.29660434 5.50965614 1 3 C1.33 3 1.66 3 2 3 C2.125 5.375 2.125 5.375 2 8 C0 10 0 10 -2.9375 10.3125 C-6 10 -6 10 -7.875 8.8125 C-9.42229478 6.31963619 -9.50405716 4.88032665 -9 2 C-6.04897468 -1.27891703 -4.09533092 -1.25135112 0 0 Z " fill="#E6E6E6" transform="translate(147,526)"/>
<path d="M0 0 C0.66 0.99 1.32 1.98 2 3 C2.721875 3.639375 3.44375 4.27875 4.1875 4.9375 C5.0846875 5.9584375 5.0846875 5.9584375 6 7 C5.75 9.25 5.75 9.25 5 11 C1.55269416 11.39397781 0.24386886 11.1644697 -2.6875 9.1875 C-5 7 -5 7 -7 4 C-6.67 3.34 -6.34 2.68 -6 2 C-4.02 2.495 -4.02 2.495 -2 3 C-2 2.34 -2 1.68 -2 1 C-1.34 0.67 -0.68 0.34 0 0 Z " fill="#F2F2F2" transform="translate(605,382)"/>
<path d="M0 0 C0.66 0.99 1.32 1.98 2 3 C2.721875 3.639375 3.44375 4.27875 4.1875 4.9375 C5.0846875 5.9584375 5.0846875 5.9584375 6 7 C5.75 9.25 5.75 9.25 5 11 C1.55269416 11.39397781 0.24386886 11.1644697 -2.6875 9.1875 C-5 7 -5 7 -7 4 C-6.67 3.34 -6.34 2.68 -6 2 C-4.02 2.495 -4.02 2.495 -2 3 C-2 2.34 -2 1.68 -2 1 C-1.34 0.67 -0.68 0.34 0 0 Z " fill="#F2F2F2" transform="translate(285,382)"/>
<path d="M0 0 C0.66 0.99 1.32 1.98 2 3 C2.721875 3.639375 3.44375 4.27875 4.1875 4.9375 C5.0846875 5.9584375 5.0846875 5.9584375 6 7 C5.75 9.25 5.75 9.25 5 11 C1.55269416 11.39397781 0.24386886 11.1644697 -2.6875 9.1875 C-5 7 -5 7 -7 4 C-6.67 3.34 -6.34 2.68 -6 2 C-4.02 2.495 -4.02 2.495 -2 3 C-2 2.34 -2 1.68 -2 1 C-1.34 0.67 -0.68 0.34 0 0 Z " fill="#F2F2F2" transform="translate(605,62)"/>
<path d="M0 0 C0.66 0.99 1.32 1.98 2 3 C2.721875 3.639375 3.44375 4.27875 4.1875 4.9375 C5.0846875 5.9584375 5.0846875 5.9584375 6 7 C5.75 9.25 5.75 9.25 5 11 C1.55269416 11.39397781 0.24386886 11.1644697 -2.6875 9.1875 C-5 7 -5 7 -7 4 C-6.67 3.34 -6.34 2.68 -6 2 C-4.02 2.495 -4.02 2.495 -2 3 C-2 2.34 -2 1.68 -2 1 C-1.34 0.67 -0.68 0.34 0 0 Z " fill="#F2F2F2" transform="translate(285,62)"/>
<path d="M0 0 C0.2475 0.556875 0.495 1.11375 0.75 1.6875 C2.21606015 4.39971127 4.02989471 6.63587365 6 9 C5.01 9.99 4.02 10.98 3 12 C1.65686601 11.35330586 0.32608822 10.68096422 -1 10 C-1.886875 9.566875 -2.77375 9.13375 -3.6875 8.6875 C-6 7 -6 7 -6.8125 4.3125 C-6.9053125 3.1678125 -6.9053125 3.1678125 -7 2 C-4.525 2.495 -4.525 2.495 -2 3 C-2 2.34 -2 1.68 -2 1 C-1.34 0.67 -0.68 0.34 0 0 Z " fill="#F3F3F3" transform="translate(455,532)"/>
<path d="M0 0 C0.2475 0.556875 0.495 1.11375 0.75 1.6875 C2.21606015 4.39971127 4.02989471 6.63587365 6 9 C5.01 9.99 4.02 10.98 3 12 C1.65686601 11.35330586 0.32608822 10.68096422 -1 10 C-1.886875 9.566875 -2.77375 9.13375 -3.6875 8.6875 C-6 7 -6 7 -6.8125 4.3125 C-6.9053125 3.1678125 -6.9053125 3.1678125 -7 2 C-4.525 2.495 -4.525 2.495 -2 3 C-2 2.34 -2 1.68 -2 1 C-1.34 0.67 -0.68 0.34 0 0 Z " fill="#F3F3F3" transform="translate(135,532)"/>
<path d="M0 0 C0.2475 0.556875 0.495 1.11375 0.75 1.6875 C2.21606015 4.39971127 4.02989471 6.63587365 6 9 C5.01 9.99 4.02 10.98 3 12 C1.65686601 11.35330586 0.32608822 10.68096422 -1 10 C-1.886875 9.566875 -2.77375 9.13375 -3.6875 8.6875 C-6 7 -6 7 -6.8125 4.3125 C-6.9053125 3.1678125 -6.9053125 3.1678125 -7 2 C-4.525 2.495 -4.525 2.495 -2 3 C-2 2.34 -2 1.68 -2 1 C-1.34 0.67 -0.68 0.34 0 0 Z " fill="#F3F3F3" transform="translate(455,212)"/>
<path d="M0 0 C3.83776322 1.56353316 6.34999338 3.83471431 9 7 C9.625 9.5625 9.625 9.5625 9 12 C6.5 14.3125 6.5 14.3125 4 16 C3.01 15.34 2.02 14.68 1 14 C2.2065625 13.6596875 2.2065625 13.6596875 3.4375 13.3125 C4.283125 12.879375 5.12875 12.44625 6 12 C6.89386164 9.45224694 6.89386164 9.45224694 7 7 C6.34 7 5.68 7 5 7 C4.34 6.01 3.68 5.02 3 4 C0.41619823 3.74969023 0.41619823 3.74969023 -2 4 C-2.20086443 7.71599191 -2.1519437 8.77208445 0 12 C-3 12 -3 12 -4.6875 10.5 C-5.120625 10.005 -5.55375 9.51 -6 9 C-3.375 2.25 -3.375 2.25 0 0 Z " fill="#E5E5E5" transform="translate(277,390)"/>
<path d="M0 0 C2.00720923 0.28674418 4.0085944 0.61866701 6 1 C6.625 2.8125 6.625 2.8125 7 5 C6.01 6.485 6.01 6.485 5 8 C2.4375 8.25 2.4375 8.25 0 8 C-1 7 -1 7 -1.125 4 C-1 1 -1 1 0 0 Z " fill="#F3F3F3" transform="translate(579,409)"/>
<path d="M0 0 C3.29679683 3.29679683 4 5.28312744 4 10 C0.77208445 12.1519437 -0.28400809 12.20086443 -4 12 C-2.66666667 8 -1.33333333 4 0 0 Z " fill="#454545" transform="translate(452,394)"/>
<path d="M0 0 C2.5625 0.1875 2.5625 0.1875 4.5625 2.1875 C4.1875 4.8125 4.1875 4.8125 3.5625 7.1875 C1.1875 7.8125 1.1875 7.8125 -1.4375 8.1875 C-3.4375 6.1875 -3.4375 6.1875 -3.625 3.625 C-3.37291261 0.34786389 -3.27713611 0.25208739 0 0 Z " fill="#F3F3F3" transform="translate(597.4375,392.8125)"/>
<path d="M0 0 C2.00720923 0.28674418 4.0085944 0.61866701 6 1 C6.625 2.8125 6.625 2.8125 7 5 C6.01 6.485 6.01 6.485 5 8 C2.4375 8.25 2.4375 8.25 0 8 C-1 7 -1 7 -1.125 4 C-1 1 -1 1 0 0 Z " fill="#F3F3F3" transform="translate(579,89)"/>
<path d="M0 0 C2.00720923 0.28674418 4.0085944 0.61866701 6 1 C6.625 2.8125 6.625 2.8125 7 5 C6.01 6.485 6.01 6.485 5 8 C2.4375 8.25 2.4375 8.25 0 8 C-1 7 -1 7 -1.125 4 C-1 1 -1 1 0 0 Z " fill="#F3F3F3" transform="translate(259,89)"/>
<path d="M0 0 C2.5625 0.1875 2.5625 0.1875 4.5625 2.1875 C4.1875 4.8125 4.1875 4.8125 3.5625 7.1875 C1.1875 7.8125 1.1875 7.8125 -1.4375 8.1875 C-3.4375 6.1875 -3.4375 6.1875 -3.625 3.625 C-3.37291261 0.34786389 -3.27713611 0.25208739 0 0 Z " fill="#F3F3F3" transform="translate(597.4375,72.8125)"/>
<path d="M0 0 C2.5625 0.1875 2.5625 0.1875 4.5625 2.1875 C4.1875 4.8125 4.1875 4.8125 3.5625 7.1875 C1.1875 7.8125 1.1875 7.8125 -1.4375 8.1875 C-3.4375 6.1875 -3.4375 6.1875 -3.625 3.625 C-3.37291261 0.34786389 -3.27713611 0.25208739 0 0 Z " fill="#F3F3F3" transform="translate(277.4375,72.8125)"/>
<path d="M0 0 C2.13745922 0.25146579 3.45925779 0.45925779 5 2 C5.125 4.5 5.125 4.5 5 7 C4 8 4 8 1.4375 8.0625 C0.633125 8.041875 -0.17125 8.02125 -1 8 C-1.66 6.35 -2.32 4.7 -3 3 C-1.75 1.4375 -1.75 1.4375 0 0 Z " fill="#F4F4F4" transform="translate(430,559)"/>
<path d="M0 0 C2.13745922 0.25146579 3.45925779 0.45925779 5 2 C5.125 4.5 5.125 4.5 5 7 C4 8 4 8 1.4375 8.0625 C0.633125 8.041875 -0.17125 8.02125 -1 8 C-1.66 6.35 -2.32 4.7 -3 3 C-1.75 1.4375 -1.75 1.4375 0 0 Z " fill="#F4F4F4" transform="translate(110,559)"/>
<path d="M0 0 C2.13745922 0.25146579 3.45925779 0.45925779 5 2 C5.125 4.5 5.125 4.5 5 7 C4 8 4 8 1.4375 8.0625 C0.633125 8.041875 -0.17125 8.02125 -1 8 C-1.66 6.35 -2.32 4.7 -3 3 C-1.75 1.4375 -1.75 1.4375 0 0 Z " fill="#F4F4F4" transform="translate(110,239)"/>
<path d="M0 0 C2.00720923 0.28674418 4.0085944 0.61866701 6 1 C6 2.98 6 4.96 6 7 C3.625 7.625 3.625 7.625 1 8 C-1 6 -1 6 -1.1875 3.4375 C-1 1 -1 1 0 0 Z " fill="#F4F4F4" transform="translate(445,543)"/>
<path d="M0 0 C2.00720923 0.28674418 4.0085944 0.61866701 6 1 C6 2.98 6 4.96 6 7 C3.625 7.625 3.625 7.625 1 8 C-1 6 -1 6 -1.1875 3.4375 C-1 1 -1 1 0 0 Z " fill="#F4F4F4" transform="translate(125,543)"/>
<path d="M0 0 C0.99 0.66 1.98 1.32 3 2 C3 2.66 3 3.32 3 4 C3.66 4.33 4.32 4.66 5 5 C4.01 5.33 3.02 5.66 2 6 C1.67 5.01 1.34 4.02 1 3 C-1.35367713 2.3121764 -1.35367713 2.3121764 -4 2 C-4.99 2.66 -5.98 3.32 -7 4 C-6.67 4.33 -6.34 4.66 -6 5 C-5.67 5.99 -5.34 6.98 -5 8 C-4.34 8.33 -3.68 8.66 -3 9 C-4.98 9.66 -6.96 10.32 -9 11 C-9.75 7.75 -9.75 7.75 -10 4 C-7.31638735 -0.18643574 -4.79400565 -0.61200072 0 0 Z " fill="#E3E3E3" transform="translate(383,465)"/>
<path d="M0 0 C2.00720923 0.28674418 4.0085944 0.61866701 6 1 C6 2.98 6 4.96 6 7 C3.625 7.625 3.625 7.625 1 8 C-1 6 -1 6 -1.1875 3.4375 C-1 1 -1 1 0 0 Z " fill="#F4F4F4" transform="translate(445,223)"/>
<path d="M0 0 C2.00720923 0.28674418 4.0085944 0.61866701 6 1 C6 2.98 6 4.96 6 7 C3.625 7.625 3.625 7.625 1 8 C-1 6 -1 6 -1.1875 3.4375 C-1 1 -1 1 0 0 Z " fill="#F4F4F4" transform="translate(125,223)"/>
<path d="M0 0 C1.67542976 0.28604898 3.34385343 0.61781233 5 1 C5 1.99 5 2.98 5 4 C5.66 4 6.32 4 7 4 C7.33 4.66 7.66 5.32 8 6 C10.32156597 6.40729228 12.6568787 6.74438677 15 7 C15 7.33 15 7.66 15 8 C8.13484138 8.26404456 1.74153283 7.25841946 -5 6 C-5 5.67 -5 5.34 -5 5 C-3.865625 4.87625 -2.73125 4.7525 -1.5625 4.625 C0.2009375 4.315625 0.2009375 4.315625 2 4 C2.33 3.34 2.66 2.68 3 2 C1.68 1.67 0.36 1.34 -1 1 C-0.67 0.67 -0.34 0.34 0 0 Z " fill="#6C6C6C" transform="translate(292,525)"/>
<path d="M0 0 C3.33727786 1.17255709 5.77437487 2.18868404 8 5 C8 5.66 8 6.32 8 7 C5.53199953 5.84826645 3.95216435 4.95216435 2 3 C1.01 3 0.02 3 -1 3 C-0.49019669 6.77254453 0.20700182 8.44987123 3 11 C3 11.66 3 12.32 3 13 C2.34 13 1.68 13 1 13 C-0.5078125 11.25 -0.5078125 11.25 -2.125 9 C-2.66382813 8.2575 -3.20265625 7.515 -3.7578125 6.75 C-4.16773438 6.1725 -4.57765625 5.595 -5 5 C-3.35 3.35 -1.7 1.7 0 0 Z " fill="#E7E7E7" transform="translate(588,399)"/>
<path d="M0 0 C3.33727786 1.17255709 5.77437487 2.18868404 8 5 C8 5.66 8 6.32 8 7 C5.53199953 5.84826645 3.95216435 4.95216435 2 3 C1.01 3 0.02 3 -1 3 C-0.49019669 6.77254453 0.20700182 8.44987123 3 11 C3 11.66 3 12.32 3 13 C2.34 13 1.68 13 1 13 C-0.5078125 11.25 -0.5078125 11.25 -2.125 9 C-2.66382813 8.2575 -3.20265625 7.515 -3.7578125 6.75 C-4.16773438 6.1725 -4.57765625 5.595 -5 5 C-3.35 3.35 -1.7 1.7 0 0 Z " fill="#E7E7E7" transform="translate(588,79)"/>
<path d="M0 0 C3.33727786 1.17255709 5.77437487 2.18868404 8 5 C8 5.66 8 6.32 8 7 C5.53199953 5.84826645 3.95216435 4.95216435 2 3 C1.01 3 0.02 3 -1 3 C-0.49019669 6.77254453 0.20700182 8.44987123 3 11 C3 11.66 3 12.32 3 13 C2.34 13 1.68 13 1 13 C-0.5078125 11.25 -0.5078125 11.25 -2.125 9 C-2.66382813 8.2575 -3.20265625 7.515 -3.7578125 6.75 C-4.16773438 6.1725 -4.57765625 5.595 -5 5 C-3.35 3.35 -1.7 1.7 0 0 Z " fill="#E7E7E7" transform="translate(268,79)"/>
<path d="M0 0 C4.0077249 0.95422021 5.23171968 3.342787 7.625 6.625 C5.15699953 5.47326645 3.57716435 4.57716435 1.625 2.625 C0.635 2.625 -0.355 2.625 -1.375 2.625 C-0.86519669 6.39754453 -0.16799818 8.07487123 2.625 10.625 C2.625 11.285 2.625 11.945 2.625 12.625 C1.965 12.625 1.305 12.625 0.625 12.625 C-0.8828125 10.875 -0.8828125 10.875 -2.5 8.625 C-3.03882813 7.8825 -3.57765625 7.14 -4.1328125 6.375 C-4.54273438 5.7975 -4.95265625 5.22 -5.375 4.625 C-2.671875 0.703125 -2.671875 0.703125 0 0 Z " fill="#E6E6E6" transform="translate(438.375,549.375)"/>
<path d="M0 0 C4.0077249 0.95422021 5.23171968 3.342787 7.625 6.625 C5.15699953 5.47326645 3.57716435 4.57716435 1.625 2.625 C0.635 2.625 -0.355 2.625 -1.375 2.625 C-0.86519669 6.39754453 -0.16799818 8.07487123 2.625 10.625 C2.625 11.285 2.625 11.945 2.625 12.625 C1.965 12.625 1.305 12.625 0.625 12.625 C-0.8828125 10.875 -0.8828125 10.875 -2.5 8.625 C-3.03882812 7.8825 -3.57765625 7.14 -4.1328125 6.375 C-4.54273437 5.7975 -4.95265625 5.22 -5.375 4.625 C-2.671875 0.703125 -2.671875 0.703125 0 0 Z " fill="#E6E6E6" transform="translate(118.375,549.375)"/>
<path d="M0 0 C0.99 0 1.98 0 3 0 C3 3.3 3 6.6 3 10 C1.02 8.35 -0.96 6.7 -3 5 C-1.6875 2.5 -1.6875 2.5 0 0 Z " fill="#C1491C" transform="translate(436,230)"/>
<path d="M0 0 C4.0077249 0.95422021 5.23171968 3.342787 7.625 6.625 C5.15699953 5.47326645 3.57716435 4.57716435 1.625 2.625 C0.635 2.625 -0.355 2.625 -1.375 2.625 C-0.86519669 6.39754453 -0.16799818 8.07487123 2.625 10.625 C2.625 11.285 2.625 11.945 2.625 12.625 C1.965 12.625 1.305 12.625 0.625 12.625 C-0.8828125 10.875 -0.8828125 10.875 -2.5 8.625 C-3.03882812 7.8825 -3.57765625 7.14 -4.1328125 6.375 C-4.54273437 5.7975 -4.95265625 5.22 -5.375 4.625 C-2.671875 0.703125 -2.671875 0.703125 0 0 Z " fill="#E6E6E6" transform="translate(118.375,229.375)"/>
<path d="M0 0 C3.68802044 1.22934015 4.72356973 2.93859378 7 6 C4 8 4 8 1.8125 7.625 C1.214375 7.41875 0.61625 7.2125 0 7 C0.33 5.68 0.66 4.36 1 3 C0.01 2.67 -0.98 2.34 -2 2 C-1.34 1.34 -0.68 0.68 0 0 Z " fill="#3E3E3E" transform="translate(205,463)"/>
<path d="M0 0 C0.66 0 1.32 0 2 0 C2 1.65 2 3.3 2 5 C-0.35438733 6.42944945 -1.48032433 7.08661261 -4.25 6.625 C-4.8275 6.41875 -5.405 6.2125 -6 6 C-5 4 -5 4 -2 3 C-1.34 2.01 -0.68 1.02 0 0 Z " fill="#EDEDED" transform="translate(282,397)"/>
<path d="M0 0 C2.475 0.495 2.475 0.495 5 1 C5.061875 1.5775 5.12375 2.155 5.1875 2.75 C6.32027301 5.88690987 8.34197595 7.09167504 11 9 C7 9 7 9 5.4375 7.5625 C4.963125 7.046875 4.48875 6.53125 4 6 C3.01 5.67 2.02 5.34 1 5 C0.67 3.35 0.34 1.7 0 0 Z " fill="#E6E6E6" transform="translate(448,534)"/>
<path d="M0 0 C2.475 0.495 2.475 0.495 5 1 C5.061875 1.5775 5.12375 2.155 5.1875 2.75 C6.32027301 5.88690987 8.34197595 7.09167504 11 9 C7 9 7 9 5.4375 7.5625 C4.963125 7.046875 4.48875 6.53125 4 6 C3.01 5.67 2.02 5.34 1 5 C0.67 3.35 0.34 1.7 0 0 Z " fill="#E6E6E6" transform="translate(128,534)"/>
<path d="M0 0 C0.33 0.99 0.66 1.98 1 3 C1.81847953 4.25321293 2.67536764 5.48190987 3.5625 6.6875 C4.24505859 7.62142578 4.24505859 7.62142578 4.94140625 8.57421875 C5.29074219 9.04472656 5.64007813 9.51523437 6 10 C2.95525635 9.67083852 1.36391406 9.32869657 -0.9375 7.25 C-2 5 -2 5 -1.1875 2.25 C-0.795625 1.5075 -0.40375 0.765 0 0 Z " fill="#3A3A3A" transform="translate(457,385)"/>
<path d="M0 0 C2.475 0.495 2.475 0.495 5 1 C5.061875 1.5775 5.12375 2.155 5.1875 2.75 C6.32027301 5.88690987 8.34197595 7.09167504 11 9 C7 9 7 9 5.4375 7.5625 C4.963125 7.046875 4.48875 6.53125 4 6 C3.01 5.67 2.02 5.34 1 5 C0.67 3.35 0.34 1.7 0 0 Z " fill="#E6E6E6" transform="translate(448,214)"/>
<path d="M0 0 C2.475 0.495 2.475 0.495 5 1 C5.061875 1.5775 5.12375 2.155 5.1875 2.75 C6.32027301 5.88690987 8.34197595 7.09167504 11 9 C7.17784773 8.46914552 4.88243054 7.58424807 2 5 C0 2 0 2 0 0 Z " fill="#E6E6E6" transform="translate(598,384)"/>
<path d="M0 0 C2.475 0.495 2.475 0.495 5 1 C5.061875 1.5775 5.12375 2.155 5.1875 2.75 C6.32027301 5.88690987 8.34197595 7.09167504 11 9 C7.17784773 8.46914552 4.88243054 7.58424807 2 5 C0 2 0 2 0 0 Z " fill="#E6E6E6" transform="translate(278,384)"/>
<path d="M0 0 C2.475 0.495 2.475 0.495 5 1 C5.061875 1.5775 5.12375 2.155 5.1875 2.75 C6.32027301 5.88690987 8.34197595 7.09167504 11 9 C7.17784773 8.46914552 4.88243054 7.58424807 2 5 C0 2 0 2 0 0 Z " fill="#E6E6E6" transform="translate(598,64)"/>
<path d="M0 0 C2.475 0.495 2.475 0.495 5 1 C5.061875 1.5775 5.12375 2.155 5.1875 2.75 C6.32027301 5.88690987 8.34197595 7.09167504 11 9 C7.17784773 8.46914552 4.88243054 7.58424807 2 5 C0 2 0 2 0 0 Z " fill="#E6E6E6" transform="translate(278,64)"/>
<path d="M0 0 C-0.33 2.31 -0.66 4.62 -1 7 C-2.65 7 -4.3 7 -6 7 C-2.86206897 0 -2.86206897 0 0 0 Z " fill="#3B3B3B" transform="translate(471,381)"/>
<path d="M0 0 C1.32 0 2.64 0 4 0 C2.95125002 2.62187494 2.35068687 3.79371361 -0.125 5.25 C-0.74375 5.4975 -1.3625 5.745 -2 6 C-1.125 1.125 -1.125 1.125 0 0 Z " fill="#F2F2F2" transform="translate(620,368)"/>
<path d="M0 0 C1.32 0 2.64 0 4 0 C2.95125002 2.62187494 2.35068687 3.79371361 -0.125 5.25 C-0.74375 5.4975 -1.3625 5.745 -2 6 C-1.125 1.125 -1.125 1.125 0 0 Z " fill="#F2F2F2" transform="translate(300,368)"/>
<path d="M0 0 C1.32 0 2.64 0 4 0 C2.95125002 2.62187494 2.35068687 3.79371361 -0.125 5.25 C-0.74375 5.4975 -1.3625 5.745 -2 6 C-1.125 1.125 -1.125 1.125 0 0 Z " fill="#F2F2F2" transform="translate(620,48)"/>
<path d="M0 0 C1.32 0 2.64 0 4 0 C2.95125002 2.62187494 2.35068687 3.79371361 -0.125 5.25 C-0.74375 5.4975 -1.3625 5.745 -2 6 C-1.125 1.125 -1.125 1.125 0 0 Z " fill="#F2F2F2" transform="translate(300,48)"/>
<path d="M0 0 C1.125 3.75 1.125 3.75 0 6 C-1.65 6 -3.3 6 -5 6 C-3.63016497 2.83884224 -3.0109362 2.0072908 0 0 Z " fill="#2C2C2C" transform="translate(150,382)"/>
<path d="M0 0 C0.33 0 0.66 0 1 0 C1 2.97 1 5.94 1 9 C0.34 9 -0.32 9 -1 9 C-1.625 5.625 -1.625 5.625 -2 2 C-1.34 1.34 -0.68 0.68 0 0 Z " fill="#EAEAEA" transform="translate(460,206)"/>
<path d="M0 0 C0.99 0.33 1.98 0.66 3 1 C1.71937515 2.7074998 0.38232443 4.37373596 -1 6 C-1.66 6 -2.32 6 -3 6 C-2.625 3.5625 -2.625 3.5625 -2 1 C-1.34 0.67 -0.68 0.34 0 0 Z " fill="#F3F3F3" transform="translate(471,518)"/>
<path d="M0 0 C0.99 0.33 1.98 0.66 3 1 C1.71937515 2.7074998 0.38232443 4.37373596 -1 6 C-1.66 6 -2.32 6 -3 6 C-2.625 3.5625 -2.625 3.5625 -2 1 C-1.34 0.67 -0.68 0.34 0 0 Z " fill="#F3F3F3" transform="translate(151,518)"/>
<path d="M0 0 C0.33 0 0.66 0 1 0 C3 5.625 3 5.625 3 9 C1.35 8.01 -0.3 7.02 -2 6 C-1.34 4.02 -0.68 2.04 0 0 Z " fill="#DBDBDB" transform="translate(273,394)"/>
<path d="M0 0 C0.66 0.99 1.32 1.98 2 3 C2.70125 3.680625 3.4025 4.36125 4.125 5.0625 C6 7 6 7 6 9 C2.63820226 7.55922954 0.40843732 5.75249979 -2 3 C-2 2.34 -2 1.68 -2 1 C-1.34 0.67 -0.68 0.34 0 0 Z " fill="#E7E7E7" transform="translate(605,382)"/>
<path d="M0 0 C0.66 0.99 1.32 1.98 2 3 C2.70125 3.680625 3.4025 4.36125 4.125 5.0625 C6 7 6 7 6 9 C2.63820226 7.55922954 0.40843732 5.75249979 -2 3 C-2 2.34 -2 1.68 -2 1 C-1.34 0.67 -0.68 0.34 0 0 Z " fill="#E7E7E7" transform="translate(285,382)"/>
<path d="M0 0 C1.32 0 2.64 0 4 0 C2.63016497 3.16115776 2.0109362 3.9927092 -1 6 C-1.625 4.125 -1.625 4.125 -2 2 C-1.34 1.34 -0.68 0.68 0 0 Z " fill="#D25B22" transform="translate(141,207)"/>
<path d="M0 0 C0.66 0.99 1.32 1.98 2 3 C2.70125 3.680625 3.4025 4.36125 4.125 5.0625 C6 7 6 7 6 9 C2.63820226 7.55922954 0.40843732 5.75249979 -2 3 C-2 2.34 -2 1.68 -2 1 C-1.34 0.67 -0.68 0.34 0 0 Z " fill="#E7E7E7" transform="translate(605,62)"/>
<path d="M0 0 C0.66 0.99 1.32 1.98 2 3 C2.70125 3.680625 3.4025 4.36125 4.125 5.0625 C6 7 6 7 6 9 C2.63820226 7.55922954 0.40843732 5.75249979 -2 3 C-2 2.34 -2 1.68 -2 1 C-1.34 0.67 -0.68 0.34 0 0 Z " fill="#E7E7E7" transform="translate(285,62)"/>
<path d="M0 0 C1.32 0 2.64 0 4 0 C2.63016497 3.16115776 2.0109362 3.9927092 -1 6 C-1.33 5.01 -1.66 4.02 -2 3 C-1.34 2.01 -0.68 1.02 0 0 Z " fill="#F3F3F3" transform="translate(461,527)"/>
<path d="M0 0 C1.65 0.33 3.3 0.66 5 1 C4.67 1.99 4.34 2.98 4 4 C2.02 4 0.04 4 -2 4 C-1.34 2.68 -0.68 1.36 0 0 Z " fill="#4E4E4E" transform="translate(290,526)"/>
<path d="M0 0 C1.32 0 2.64 0 4 0 C2.63016497 3.16115776 2.0109362 3.9927092 -1 6 C-1.33 5.01 -1.66 4.02 -2 3 C-1.34 2.01 -0.68 1.02 0 0 Z " fill="#F3F3F3" transform="translate(141,527)"/>
<path d="M0 0 C-0.25 1.875 -0.25 1.875 -1 4 C-3.0625 5.25 -3.0625 5.25 -5 6 C-4.625 3.5625 -4.625 3.5625 -4 1 C-2 0 -2 0 0 0 Z " fill="#4B4B4B" transform="translate(303,518)"/>
<path d="M0 0 C0.33 0 0.66 0 1 0 C1.042721 1.66611905 1.04063832 3.33382885 1 5 C0 6 0 6 -2.5625 6.0625 C-3.7690625 6.0315625 -3.7690625 6.0315625 -5 6 C-3.35830472 3.97945196 -1.69088222 1.97956942 0 0 Z " fill="#F4F4F4" transform="translate(625,370)"/>
<path d="M0 0 C0.33 0 0.66 0 1 0 C1.042721 1.66611905 1.04063832 3.33382885 1 5 C0 6 0 6 -2.5625 6.0625 C-3.7690625 6.0315625 -3.7690625 6.0315625 -5 6 C-3.35830472 3.97945196 -1.69088222 1.97956942 0 0 Z " fill="#F4F4F4" transform="translate(305,370)"/>
<path d="M0 0 C0.556875 0.144375 1.11375 0.28875 1.6875 0.4375 C4.11384195 1.02769128 6.54906345 1.523429 9 2 C9 2.66 9 3.32 9 4 C6.36 3.67 3.72 3.34 1 3 C0.67 2.01 0.34 1.02 0 0 Z " fill="#DC8038" transform="translate(201,303)"/>
<path d="M0 0 C0.33 0 0.66 0 1 0 C1.042721 1.66611905 1.04063832 3.33382885 1 5 C0 6 0 6 -2.5625 6.0625 C-3.7690625 6.0315625 -3.7690625 6.0315625 -5 6 C-3.35830472 3.97945196 -1.69088222 1.97956942 0 0 Z " fill="#F4F4F4" transform="translate(625,50)"/>
<path d="M0 0 C0.33 0 0.66 0 1 0 C1.042721 1.66611905 1.04063832 3.33382885 1 5 C0 6 0 6 -2.5625 6.0625 C-3.7690625 6.0315625 -3.7690625 6.0315625 -5 6 C-3.35830472 3.97945196 -1.69088222 1.97956942 0 0 Z " fill="#F4F4F4" transform="translate(305,50)"/>
<path d="M0 0 C0.2475 0.556875 0.495 1.11375 0.75 1.6875 C2.21606015 4.39971127 4.02989471 6.63587365 6 9 C2.63820226 7.55922954 0.40843732 5.75249979 -2 3 C-2 2.34 -2 1.68 -2 1 C-1.34 0.67 -0.68 0.34 0 0 Z " fill="#E6E6E6" transform="translate(455,532)"/>
<path d="M0 0 C0.2475 0.556875 0.495 1.11375 0.75 1.6875 C2.21606015 4.39971127 4.02989471 6.63587365 6 9 C2.63820226 7.55922954 0.40843732 5.75249979 -2 3 C-2 2.34 -2 1.68 -2 1 C-1.34 0.67 -0.68 0.34 0 0 Z " fill="#E6E6E6" transform="translate(135,532)"/>
<path d="M0 0 C1.32 0 2.64 0 4 0 C2.63016497 3.16115776 2.0109362 3.9927092 -1 6 C-1.042721 4.33388095 -1.04063832 2.66617115 -1 1 C-0.67 0.67 -0.34 0.34 0 0 Z " fill="#F3F3F3" transform="translate(611,377)"/>
<path d="M0 0 C1.32 0 2.64 0 4 0 C2.63016497 3.16115776 2.0109362 3.9927092 -1 6 C-1.042721 4.33388095 -1.04063832 2.66617115 -1 1 C-0.67 0.67 -0.34 0.34 0 0 Z " fill="#F3F3F3" transform="translate(291,377)"/>
<path d="M0 0 C0.2475 0.556875 0.495 1.11375 0.75 1.6875 C2.21606015 4.39971127 4.02989471 6.63587365 6 9 C2.63820226 7.55922954 0.40843732 5.75249979 -2 3 C-2 2.34 -2 1.68 -2 1 C-1.34 0.67 -0.68 0.34 0 0 Z " fill="#E6E6E6" transform="translate(455,212)"/>
<path d="M0 0 C1.32 0 2.64 0 4 0 C2.63016497 3.16115776 2.0109362 3.9927092 -1 6 C-1.042721 4.33388095 -1.04063832 2.66617115 -1 1 C-0.67 0.67 -0.34 0.34 0 0 Z " fill="#F3F3F3" transform="translate(611,57)"/>
<path d="M0 0 C1.32 0 2.64 0 4 0 C2.63016497 3.16115776 2.0109362 3.9927092 -1 6 C-1.042721 4.33388095 -1.04063832 2.66617115 -1 1 C-0.67 0.67 -0.34 0.34 0 0 Z " fill="#F3F3F3" transform="translate(291,57)"/>
<path d="M0 0 C2.86724686 0.57344937 3.8614515 0.8614515 6 3 C5.67 3.99 5.34 4.98 5 6 C3.31237149 4.3545622 1.6459651 2.68711423 0 1 C0 0.67 0 0.34 0 0 Z " fill="#272727" transform="translate(207,463)"/>
<path d="M0 0 C0.99 0 1.98 0 3 0 C2.1875 2.4375 2.1875 2.4375 1 5 C0.01 5.33 -0.98 5.66 -2 6 C-1.125 1.125 -1.125 1.125 0 0 Z " fill="#3B3B3B" transform="translate(465,380)"/>
<path d="M0 0 C0.99 0 1.98 0 3 0 C3 0.99 3 1.98 3 3 C0.5 4.6875 0.5 4.6875 -2 6 C-1.125 1.125 -1.125 1.125 0 0 Z " fill="#2B2B2B" transform="translate(145,380)"/>
<path d="M0 0 C0.33 0 0.66 0 1 0 C1 1.65 1 3.3 1 5 C-0.65 5.33 -2.3 5.66 -4 6 C-2.84826645 3.53199953 -1.95216435 1.95216435 0 0 Z " fill="#3D3D3D" transform="translate(478,374)"/>
<path d="M0 0 C1.32 0 2.64 0 4 0 C3 3 3 3 0.9375 4.1875 C0.298125 4.455625 -0.34125 4.72375 -1 5 C-1 1 -1 1 0 0 Z " fill="#2B2B2B" transform="translate(153,372)"/>
<path d="M0 0 C0.66 0 1.32 0 2 0 C2 2.31 2 4.62 2 7 C1.01 6.34 0.02 5.68 -1 5 C-0.67 3.35 -0.34 1.7 0 0 Z " fill="#CD4D1D" transform="translate(437,231)"/>
</svg>
